# xmcd
#
# Track frame offsets: 
#        150
#        7342
#        20721
#        38733
#        57620
#        69574
#        91550
#        110488
#        129471
#        140731
#        158126
#        174381
#
# Disc length: 2534 seconds
#
# Revision: 0
# Processed by: cddbd v1.5.2PL0 Copyright (c) Steve Scherf et al.
# Submitted via: ExactAudioCopy v0.99pb5
#
DISCID=a509e40c
DTITLE=The Megaphone State - Home of the Knockout Artist
DYEAR=2009
DGENRE=Rap
TTITLE0=Let Yall Know
TTITLE1=Finally
TTITLE2=Why we fall
TTITLE3=7 a.m.
TTITLE4=Get it together
TTITLE5=Magic
TTITLE6=Anonymous Strangers
TTITLE7=Never Leave You
TTITLE8=Directions
TTITLE9=Something New
TTITLE10=Bread
TTITLE11=Shine
EXTD=
EXTT0=
EXTT1=
EXTT2=
EXTT3=
EXTT4=
EXTT5=
EXTT6=
EXTT7=
EXTT8=
EXTT9=
EXTT10=
EXTT11=
PLAYORDER=
